<?xml version="1.0" encoding="UTF-8" standalone="no" ?>
<!DOCTYPE svg PUBLIC "-//W3C//DTD SVG 1.1//EN" "http://www.w3.org/Graphics/SVG/1.1/DTD/svg11.dtd">
<svg xmlns="http://www.w3.org/2000/svg" xmlns:xlink="http://www.w3.org/1999/xlink" version="1.1" width="1280" height="1024" viewBox="0 0 1280 1024" xml:space="preserve">
<desc>Created with Fabric.js 5.3.0</desc>
<defs>
</defs>
<g transform="matrix(1 0 0 1 640 512)" id="background-logo"  >
<rect style="stroke: none; stroke-width: 0; stroke-dasharray: none; stroke-linecap: butt; stroke-dashoffset: 0; stroke-linejoin: miter; stroke-miterlimit: 4; fill: rgb(255,255,255); fill-rule: nonzero; opacity: 1;"  paint-order="stroke"  x="-640" y="-512" rx="0" ry="0" width="1280" height="1024" />
</g>
<g transform="matrix(2.589732069642799 0 0 2.589732069642799 640 441.0546409741683)" id="logo-logo"  >
<g style=""  paint-order="stroke"   >
		<g transform="matrix(0.917930923744532 0 0 0.9179309237445321 0 0)"  >
<g style=""  paint-order="stroke"   >
		<g transform="matrix(1 0 0 1 0 0)"  >
<linearGradient id="SVGID_29_10437" gradientUnits="userSpaceOnUse" gradientTransform="matrix(1 0 0 1 -100 -100)"  x1="0" y1="0" x2="0" y2="200">
<stop offset="0%" style="stop-color:rgb(238,99,122);stop-opacity: 1"/>
<stop offset="100%" style="stop-color:rgb(225,25,58);stop-opacity: 1"/>
</linearGradient>
<polygon style="stroke: none; stroke-width: 1; stroke-dasharray: none; stroke-linecap: butt; stroke-dashoffset: 0; stroke-linejoin: miter; stroke-miterlimit: 4; fill: url(#SVGID_29_10437); fill-rule: nonzero; opacity: 1;"  paint-order="stroke"  points="100,100 0,100 0,95.12 95.12,95.12 95.12,-95.12 -95.12,-95.12 -95.12,0 -100,0 -100,-100 100,-100 100,100 " />
</g>
</g>
</g>
</g>
</g>
<g transform="matrix(1.9211538461538462 0 0 1.9211538461538462 640.6916153846154 757.00306119656)" id="text-logo"  >
<g style=""  paint-order="stroke"   >
		<g transform="matrix(1 0 0 1 0 0)" id="text-logo-path-0"  >
<path style="stroke: rgb(255,255,255); stroke-width: 0; stroke-dasharray: none; stroke-linecap: butt; stroke-dashoffset: 0; stroke-linejoin: miter; stroke-miterlimit: 4; fill: rgb(235,71,99); fill-rule: nonzero; opacity: 1;"  paint-order="stroke"  transform=" translate(-237.41, 21.095000000000002)" d="M 4.8 -33.6 L 4.8 0 L 19.2 0 L 19.2 -2.88 L 8.16 -2.88 L 8.16 -15.36 L 16.32 -15.36 L 16.32 -18.24 L 8.16 -18.24 L 8.16 -30.72 L 18.72 -30.72 L 18.72 -33.6 Z M 14.4 -42.67 L 10.56 -42.67 L 7.2 -36 L 10.08 -36 Z M 55.34 -25.44 L 55.34 -20.64 L 58.7 -20.64 L 58.7 -26.4 C 58.7 -32.83 55.1 -34.08 50.54 -34.08 C 46.03 -34.08 42.38 -32.83 42.38 -26.4 L 42.38 -7.2 C 42.38 -0.77 46.03 0.48 50.54 0.48 C 55.1 0.48 58.7 -0.86 58.7 -7.2 L 58.7 -9.22 L 55.34 -9.22 L 55.34 -8.16 C 55.34 -3.79 53.47 -2.88 50.54 -2.88 C 47.62 -2.88 45.74 -3.79 45.74 -8.16 L 45.74 -25.44 C 45.74 -29.81 47.62 -30.72 50.54 -30.72 C 53.47 -30.72 55.34 -29.81 55.34 -25.44 Z M 83.81 -33.6 L 83.81 0 L 95.81 0 L 95.81 -2.88 L 87.17 -2.88 L 87.17 -33.6 Z M 115.39 0 L 118.75 0 L 120.67 -9.12 L 129.26 -9.12 L 131.18 0 L 134.54 0 L 127.49 -33.6 L 122.45 -33.6 Z M 121.3 -12 L 124.99 -29.62 L 128.69 -12 Z M 167.57 -33.6 L 151.73 -33.6 L 151.73 -30.72 L 157.97 -30.72 L 157.97 0 L 161.33 0 L 161.33 -30.72 L 167.57 -30.72 Z M 216.34 -8.16 L 216.34 -9.26 L 212.98 -9.26 L 212.98 -7.2 C 212.98 -0.77 215.18 0.48 219.7 0.48 C 224.26 0.48 226.42 -0.77 226.42 -7.2 L 226.42 -33.6 L 217.2 -33.6 L 217.2 -30.72 L 223.06 -30.72 L 223.06 -8.16 C 223.06 -3.79 222.62 -2.88 219.7 -2.88 C 216.77 -2.88 216.34 -3.79 216.34 -8.16 Z M 251.52 -26.4 L 251.52 -7.2 C 251.52 -0.77 255.17 0.48 259.68 0.48 C 264.24 0.48 267.84 -0.86 267.84 -7.2 L 267.84 -26.4 C 267.84 -32.83 264.24 -34.08 259.68 -34.08 C 255.17 -34.08 251.52 -32.83 251.52 -26.4 Z M 254.88 -8.16 L 254.88 -25.44 C 254.88 -29.81 256.75 -30.72 259.68 -30.72 C 262.61 -30.72 264.48 -29.81 264.48 -25.44 L 264.48 -8.16 C 264.48 -3.79 262.61 -2.88 259.68 -2.88 C 256.75 -2.88 254.88 -3.79 254.88 -8.16 Z M 296.3 -8.16 L 296.3 -33.6 L 292.94 -33.6 L 292.94 -7.2 C 292.94 -0.77 296.59 0.48 301.1 0.48 C 305.66 0.48 309.26 -0.77 309.26 -7.2 L 309.26 -33.6 L 305.9 -33.6 L 305.9 -8.16 C 305.9 -3.79 304.03 -2.88 301.1 -2.88 C 298.18 -2.88 296.3 -3.79 296.3 -8.16 Z M 335.09 0 L 338.45 0 L 338.45 -12.48 L 341.81 -12.48 L 347.81 0 L 351.41 0 L 345.26 -12.86 C 348.1 -13.58 349.97 -15.55 349.97 -20.16 L 349.97 -25.92 C 349.97 -32.35 346.37 -33.6 341.81 -33.6 L 335.09 -33.6 Z M 338.45 -15.36 L 338.45 -30.72 L 341.81 -30.72 C 344.74 -30.72 346.61 -29.81 346.61 -25.44 L 346.61 -20.64 C 346.61 -16.27 344.74 -15.36 341.81 -15.36 Z M 374.83 -33.6 L 374.83 0 L 378.19 0 L 378.19 -25.44 L 388.66 0 L 392.02 0 L 392.02 -33.6 L 388.66 -33.6 L 388.66 -8.16 L 378.19 -33.6 Z M 415.44 0 L 418.8 0 L 420.72 -9.12 L 429.31 -9.12 L 431.23 0 L 434.59 0 L 427.54 -33.6 L 422.5 -33.6 Z M 421.34 -12 L 425.04 -29.62 L 428.74 -12 Z M 458.02 -33.6 L 458.02 0 L 470.02 0 L 470.02 -2.88 L 461.38 -2.88 L 461.38 -33.6 Z" stroke-linecap="round" />
</g>
</g>
</g>
<g transform="matrix(1.9211538461538462 0 0 1.9211538461538462 645.5405463168188 424.57196123912126)" id="tagline-3a78d944-c0db-44d4-8ad5-60158c925687-logo"  >
<g style=""  paint-order="stroke"   >
		<g transform="matrix(1 0 0 1 0 0)" id="tagline-3a78d944-c0db-44d4-8ad5-60158c925687-logo-path-0"  >
<linearGradient id="SVGID_10438" gradientUnits="userSpaceOnUse" gradientTransform="matrix(1 0 0 1 11.600000000000001 -103.12)"  x1="-11.600000000000023" y1="1.1437599999999861" x2="-11.600000000000023" y2="132.14376">
<stop offset="0%" style="stop-color:rgb(238,99,122);stop-opacity: 1"/>
<stop offset="100%" style="stop-color:rgb(225,25,58);stop-opacity: 1"/>
</linearGradient>
<path style="stroke: rgb(255,255,255); stroke-width: 0; stroke-dasharray: none; stroke-linecap: butt; stroke-dashoffset: 0; stroke-linejoin: miter; stroke-miterlimit: 4; fill: url(#SVGID_10438); fill-rule: nonzero; opacity: 1;"  paint-order="stroke"  transform=" translate(-29, 51.56)" d="M 11.6 -81.2 L 11.6 0 L 46.4 0 L 46.4 -6.96 L 19.72 -6.96 L 19.72 -37.12 L 39.44 -37.12 L 39.44 -44.08 L 19.72 -44.08 L 19.72 -74.24 L 45.24 -74.24 L 45.24 -81.2 Z M 34.8 -103.12 L 25.52 -103.12 L 17.4 -87 L 24.36 -87 Z" stroke-linecap="round" />
</g>
</g>
</g>
</svg>